<svg width="593" height="113" viewBox="0 0 593 113" fill="none" xmlns="http://www.w3.org/2000/svg">
<g clip-path="url(#clip0_1155_23)">
<path d="M171.855 16.9495H188.335L200.105 65.4453C202.224 74.6266 202.695 80.0411 202.695 80.0411H202.93C202.93 80.0411 203.637 74.6266 205.991 65.4453L217.291 16.9495H235.889L247.895 65.4453C250.249 74.862 250.72 80.0411 250.72 80.0411H250.955C250.955 80.0411 251.191 74.862 253.31 65.4453L264.61 16.9495H281.089L260.372 96.7557H242.245L229.768 48.4953C227.178 37.9016 226.943 33.4286 226.943 33.4286H226.708C226.708 33.4286 226.472 38.137 224.118 48.4953L212.347 96.7557H193.514C193.043 96.7557 171.855 16.9495 171.855 16.9495ZM278.264 67.7995C278.264 49.6724 290.035 37.6661 307.926 37.6661C325.583 37.6661 337.353 49.437 337.353 67.7995C337.353 86.162 325.583 97.9328 307.926 97.9328C290.035 97.9328 278.264 86.162 278.264 67.7995ZM322.051 67.7995C322.051 56.0286 316.401 49.437 307.926 49.437C298.745 49.437 293.566 56.9703 293.566 67.7995C293.566 79.8057 299.216 86.3974 307.926 86.3974C316.872 86.3974 322.051 79.0995 322.051 67.7995ZM344.651 38.6078H359.247V49.437H359.483C362.072 43.787 367.958 38.3724 378.316 38.3724C379.964 38.3724 381.141 38.6078 381.847 38.8432V53.4391H381.376C381.376 53.4391 379.964 52.9682 376.433 52.9682C365.133 52.9682 359.012 59.5599 359.012 72.037V96.9912H344.416V38.6078H344.651ZM388.674 16.9495H403.27V42.6099C403.27 57.6766 403.035 60.5016 403.035 60.5016H403.27L424.928 38.8432H443.055L417.63 64.0328L447.058 96.9912H429.872L408.685 72.9786L403.27 78.3932V96.9912H388.439L388.674 16.9495ZM447.058 57.2057C447.058 32.7224 462.36 16.2432 485.195 16.2432C508.03 16.2432 523.333 32.7224 523.333 57.2057C523.333 81.6891 508.03 98.1682 485.195 98.1682C462.36 98.1682 447.058 81.6891 447.058 57.2057ZM507.795 57.2057C507.795 40.4911 498.849 29.1911 485.43 29.1911C472.012 29.1911 463.066 40.4911 463.066 57.2057C463.066 73.9203 472.012 85.2203 485.43 85.2203C498.614 85.2203 507.795 73.9203 507.795 57.2057ZM528.983 70.1536H545.697C545.697 79.5703 552.053 84.7495 561.941 84.7495C570.18 84.7495 575.83 80.512 575.83 74.6266C575.83 68.0349 571.358 66.1516 557.703 63.562C544.991 60.9724 531.572 56.7349 531.572 40.2557C531.572 26.3661 543.343 16.0078 561.47 16.0078C580.303 16.0078 591.839 25.8953 591.839 40.7266H575.124C575.124 33.4286 569.474 28.9557 561.47 28.9557C553.23 28.9557 548.051 32.9578 548.051 38.8432C548.051 44.9641 551.583 47.5536 562.883 49.6724C579.362 53.2036 593.016 55.087 593.016 73.4495C593.016 88.0453 580.303 97.6974 561.705 97.6974C542.401 97.6974 528.983 86.8682 528.983 70.1536Z" fill="#666666"/>
<path d="M0 56.5C0 59.0896 0.70625 61.4438 1.88333 63.5625L24.7188 103.113C27.0729 107.115 30.6042 110.41 35.0771 111.823C43.5521 114.648 52.7333 111.117 57.2063 103.583L62.6208 93.9313L40.9625 56.2646L64.0333 16.4792L69.4479 7.0625C71.0958 4.2375 73.2146 1.88333 75.8042 0H40.4917C34.3708 0 28.4854 3.29583 25.425 8.71042L1.88333 49.4375C0.70625 51.5563 0 53.9104 0 56.5Z" fill="#666666"/>
<path d="M130.417 56.5003C130.417 53.9107 129.711 51.5565 128.534 49.4378L105.463 9.41695C100.99 1.6482 91.8091 -1.64763 83.3341 1.17737C78.8612 2.58987 75.3299 5.8857 72.9758 9.88778L67.5612 18.8336L89.4549 56.5003L66.3841 96.2857L60.9695 105.938C59.3216 108.763 57.2029 111.117 54.6133 113H90.1612C96.282 113 102.167 109.704 105.228 104.29L128.77 63.5628C129.711 61.444 130.417 59.0899 130.417 56.5003Z" fill="#666666"/>
</g>
<defs>
<clipPath id="clip0_1155_23">
<rect width="592.779" height="113" fill="white"/>
</clipPath>
</defs>
</svg>
